HIERARCHY
ROOT Hips
{
  OFFSET 40.9192 92.6879 18.85
  CHANNELS 6 Xposition Yposition Zposition Zrotation Xrotation Yrotation
  JOINT LeftUpLeg
  {
    OFFSET 8.64259 1.95398 -2.38835
    CHANNELS 3 Zrotation Xrotation Yrotation
    JOINT LeftLeg
    {
      OFFSET 43.7702 0 0
      CHANNELS 3 Zrotation Xrotation Yrotation
      JOINT LeftFoot
      {
        OFFSET 40.6238 0 0
        CHANNELS 3 Zrotation Xrotation Yrotation
        JOINT LeftToeBase
        {
          OFFSET 12.7242 0 0
          CHANNELS 3 Zrotation Xrotation Yrotation
          End Site
          {
            OFFSET 0 0 0
          }
        }
      }
    }
  }
  JOINT RightUpLeg
  {
    OFFSET -8.2249 1.95398 -2.59336
    CHANNELS 3 Zrotation Xrotation Yrotation
    JOINT RightLeg
    {
      OFFSET 43.5653 0 0
      CHANNELS 3 Zrotation Xrotation Yrotation
      JOINT RightFoot
      {
        OFFSET 40.6238 0 0
        CHANNELS 3 Zrotation Xrotation Yrotation
        JOINT RightToeBase
        {
          OFFSET 12.7242 0 0
          CHANNELS 3 Zrotation Xrotation Yrotation
          End Site
          {
            OFFSET 0 0 0
          }
        }
      }
    }
  }
  JOINT Spine
  {
    OFFSET 0.165834 0.87714 6.61349
    CHANNELS 3 Zrotation Xrotation Yrotation
    JOINT Spine1
    {
      OFFSET 7.38963 1.71661e-005 0
      CHANNELS 3 Zrotation Xrotation Yrotation
      JOINT Spine2
      {
        OFFSET 11.9445 1.14441e-005 0
        CHANNELS 3 Zrotation Xrotation Yrotation
        JOINT Spine3
        {
          OFFSET 14.7254 4.19617e-005 0
          CHANNELS 3 Zrotation Xrotation Yrotation
          JOINT Spine4
          {
            OFFSET 10.9679 0 0
            CHANNELS 3 Zrotation Xrotation Yrotation
            JOINT RightShoulder
            {
              OFFSET 2.46616 -1.6653 3.69651
              CHANNELS 3 Zrotation Xrotation Yrotation
              JOINT RightArm
              {
                OFFSET 13.0012 0 0
                CHANNELS 3 Zrotation Xrotation Yrotation
                JOINT RightForeArm
                {
                  OFFSET 28.7848 1.52588e-005 0
                  CHANNELS 3 Zrotation Xrotation Yrotation
                  JOINT RightHand
                  {
                    OFFSET 26.5688 1.52588e-005 0
                    CHANNELS 3 Zrotation Xrotation Yrotation
                    End Site
                    {
                      OFFSET 0 0 0
                    }
                  }
                }
              }
            }
            JOINT LeftShoulder
            {
              OFFSET 2.38034 -1.29275 -3.7523
              CHANNELS 3 Zrotation Xrotation Yrotation
              JOINT LeftArm
              {
                OFFSET 16.3182 6.10351e-005 0
                CHANNELS 3 Zrotation Xrotation Yrotation
                JOINT LeftForeArm
                {
                  OFFSET 27.0901 0 0
                  CHANNELS 3 Zrotation Xrotation Yrotation
                  JOINT LeftHand
                  {
                    OFFSET 24.5451 1.52588e-005 0
                    CHANNELS 3 Zrotation Xrotation Yrotation
                    End Site
                    {
                      OFFSET 0 0 0
                    }
                  }
                }
              }
            }
            JOINT Neck
            {
              OFFSET 5.0226 -0.0266342 0
              CHANNELS 3 Zrotation Xrotation Yrotation
              JOINT Head
              {
                OFFSET 6.69363 2.86102e-005 0
                CHANNELS 3 Zrotation Xrotation Yrotation
                End Site
                {
                  OFFSET 0 0 0
                }
              }
            }
          }
        }
      }
    }
  }
}
MOTION
Frames:	9
Frame Time:	0.0416667
-2.76388 96.534 -22.5528 -96.8161 -57.7592 -93.7869 -170.837 4.69407 92.6887 -25.811 12.5042 -1.57402 67.5775 6.73286 4.91507 34.2148 4.13491 5.90626 178.444 10.7925 84.8768 -40.1399 -9.15862 -7.78015 69.3018 -5.7657 -3.05371 37.4948 0.336985 -8.42126 0.377517 7.97776 -89.8093 10.9177 0.839827 0.300745 -0.752995 0.85226 0.263484 -23.2896 0.710633 0.539253 -3.27694 0.710613 0.539253 95.2489 -44.3184 -93.5564 34.3891 -12.4691 21.5646 -16.4022 -20.8808 -62.3412 -11.6415 -0.899264 2.1789 -90.4947 -44.8132 76.7703 -28.0739 14.059 15.0689 18.5216 3.06491 -72.2876 13.5481 0.66758 1.04746 9.20611 21.3962 -9.80021 -2.14186 23.1993 17.6205 
0.0908045 96.9087 -18.5678 -95.6015 -66.3249 -91.9138 -172.33 4.46783 91.3988 -24.7099 18.5051 -0.866901 67.7153 6.95869 4.37051 33.032 3.0268 7.58411 179.811 12.7981 88.5318 -42.4221 -9.22107 -6.83558 66.2471 -4.30545 -2.40503 39.6541 0.260535 -9.21773 0.212333 7.9434 -89.6903 10.9854 0.56612 0.562134 -0.685552 0.590316 0.53666 -23.2202 0.371011 0.706276 -3.20758 0.371022 0.706288 95.375 -44.6696 -93.2934 35.0129 -12.3992 21.9984 -17.9302 -22.1187 -62.3656 -8.68471 -0.81468 2.33336 -90.6011 -43.9377 76.3811 -25.8466 11.2238 15.7286 18.0345 4.25548 -69.3483 12.7365 0.782817 2.20829 10.0265 17.3182 -10.0417 0.713851 19.5848 14.4324 
3.20428 97.3482 -14.4345 -92.5951 -75.9413 -87.3899 -172.13 4.06263 91.4053 -23.406 22.3852 -1.3784 67.2835 6.47937 5.01613 31.8777 1.92656 8.51089 -179.89 14.6763 92.2414 -41.0495 -9.85335 -5.0135 62.539 -2.72313 -1.58775 38.1838 0.306043 -9.20321 -0.042091 7.97964 -89.7524 10.9142 0.0308278 0.489698 -0.756863 0.0523521 0.487867 -23.2913 -0.117772 0.476327 -3.27865 -0.117766 0.476329 95.5947 -45.0367 -92.8767 35.1841 -12.7555 22.6685 -16.2836 -22.5832 -60.9919 -7.3111 -0.753698 2.27621 -90.9203 -43.8485 75.8482 -22.6461 10.0065 15.0087 17.2249 3.86349 -69.178 12.445 0.746969 2.06152 10.4163 13.0852 -9.33985 3.84169 15.4806 11.0011 
6.51603 96.9863 -10.308 -68.5878 -84.222 -63.5371 -172.313 3.82177 89.3542 -22.1582 18.3004 -2.29053 67.0382 6.34476 4.62982 34.1812 3.96558 11.7512 179.523 19.1448 93.6163 -39.6236 -9.62333 -3.47604 60.8026 -1.75645 -1.02801 40.01 0.268003 -8.5975 -0.274577 7.91845 -89.6729 11.0377 -0.394872 0.688901 -0.633394 -0.364178 0.705603 -23.1681 -0.583662 0.538376 -3.15543 -0.583662 0.538378 95.7795 -45.7879 -92.4675 34.9013 -13.302 24.0175 -14.7538 -22.6152 -59.7818 -6.70242 -0.704424 1.98914 -91.2483 -43.5584 75.2469 -19.6803 9.15621 12.5395 17.5997 3.39619 -70.4942 12.7843 0.685521 1.45772 10.116 8.88157 -8.58604 7.03416 11.2372 8.21385 
10.0297 95.7211 -6.69761 35.9707 -84.534 41.0552 -172.124 4.4841 87.425 -24.8972 10.8808 -3.10612 68.5718 8.05698 3.46583 37.7466 7.42891 13.4447 178.295 24.668 94.4587 -39.6342 -8.27136 -1.78207 63.7271 -2.4845 -1.42975 39.8884 0.237778 -9.63662 -0.462721 7.94334 -89.732 10.9894 -0.796973 0.609563 -0.681504 -0.769368 0.644042 -23.2181 -0.943329 0.341852 -3.2055 -0.94333 0.341844 96.2938 -45.8582 -91.6188 34.2588 -13.7404 25.3121 -13.3469 -23.491 -57.7429 -6.44928 -0.627448 0.936343 -91.8206 -44.4389 74.5747 -16.1524 8.08767 8.02499 18.2727 2.48684 -73.3104 13.4968 0.709773 1.3637 10.2955 4.80626 -6.6283 9.38511 6.7227 5.56741 
13.1667 93.6026 -3.52119 62.2737 -76.9868 67.5668 -171.104 6.20238 86.323 -30.7174 10.0704 -4.05997 68.6423 9.92727 8.20712 42.3716 11.4528 8.46185 177.4 31.5333 95.1287 -41.2684 -6.418 -0.572001 64.8573 -2.70271 -1.52928 40.547 0.201074 -10.052 -0.554789 8.13826 -89.8274 10.5996 -1.02558 0.435642 -1.07106 -1.00541 0.480351 -23.6094 -1.10909 0.107243 -3.59675 -1.10909 0.107233 96.1849 -46.6262 -91.6982 33.0047 -13.6036 26.515 -12.251 -23.7988 -55.5873 -5.3001 -0.594184 0.907617 -93.1505 -45.5563 72.8047 -12.2804 5.5019 2.41578 19.4657 0.676441 -78.5762 14.1896 0.549425 0.0247538 11.5674 0.542544 -6.38037 11.025 2.57795 4.92194 
15.6484 90.935 -0.387423 72.2876 -69.5892 78.0793 -171.564 7.14282 86.7032 -38.8676 15.0337 -2.76701 71.2181 13.7944 10.892 44.2121 12.8847 6.74046 175.948 37.8204 95.9337 -43.0883 -5.97148 0.740427 66.2309 -2.98315 -1.65109 41.867 0.120625 -10.6613 -0.602508 8.54549 -89.8993 9.7847 -1.15543 0.290457 -1.88578 -1.14151 0.341033 -24.4251 -1.1893 -0.070265 -4.41243 -1.18929 -0.0702656 95.3594 -48.492 -92.77 30.8492 -13.8832 26.7928 -11.914 -27.7616 -52.5845 -7.21546 -0.698384 1.2433 -94.1358 -45.0003 71.1026 -8.97898 3.92195 -4.72127 18.5993 -1.89447 -84.386 15.7516 0.67867 0.449674 14.1983 -3.50485 -6.7493 11.6787 -1.33466 3.32088 
18.3351 88.2744 3.54513 75.606 -62.9298 82.431 -172.664 5.51623 88.0635 -43.5642 22.0351 -0.800639 72.9908 17.0554 13.4992 48.3335 15.788 3.02924 173.574 43.5476 96.8718 -43.2081 -5.96551 2.52746 64.8502 -2.27092 -1.23964 44.9606 -0.00593574 -10.6049 -0.706026 8.87723 -90.0901 9.11992 -1.44844 -0.0753539 -2.55023 -1.45036 -0.0115291 -25.0913 -1.35882 -0.507267 -5.0786 -1.35883 -0.507276 94.395 -47.9778 -94.372 30.4611 -13.7214 26.6921 -14.2449 -31.5668 -52.2368 -10.9736 -0.974308 2.87657 -93.2342 -42.2258 71.6673 -9.82156 3.11202 -11.7944 20.3475 -3.14141 -88.9978 17.5718 0.929806 1.41996 17.6023 -6.22932 -6.23293 10.1751 -4.13207 1.98342 
22.4644 86.7785 9.24405 73.0859 -57.7952 80.5862 -173.274 0.379039 90.2688 -38.9431 25.9974 0.157624 72.7842 17.0769 13.9213 49.8951 17.0825 3.14454 170.223 48.199 97.1732 -42.0048 -5.85124 4.73386 62.4873 -1.1736 -0.589001 49.1756 -0.312474 -11.8534 -0.79279 8.70544 -90.2538 9.45998 -1.69499 -0.376039 -2.20989 -1.7099 -0.301063 -24.7519 -1.5036 -0.868173 -4.73928 -1.5036 -0.868172 94.1897 -47.0092 -94.8548 31.4894 -13.5921 30.4561 -13.9637 -27.5369 -54.78 -16.531 -1.12807 2.51256 -92.2022 -39.6942 72.5669 -10.5246 6.50708 -16.0476 22.7079 -4.33861 -90.5567 15.3818 0.8155 1.40674 18.8937 -7.09799 -5.88319 7.89979 -4.96799 2.57453 
